<svg xmlns="http://www.w3.org/2000/svg" width="80.939" height="33.982" viewBox="0 0 80.939 33.982"><path d="M21.295 28.34c0-1.58-.55-2.915-1.647-4.008-1.098-1.092-2.472-1.637-4.12-1.637-1.647 0-3.02.545-4.118 1.637-1.1 1.093-1.646 2.428-1.646 4.007s.548 2.912 1.646 4.005c1.1 1.09 2.47 1.638 4.12 1.638 1.646 0 3.02-.547 4.118-1.638 1.098-1.093 1.647-2.427 1.647-4.006m-9.227 0c0-1.06.326-1.92.98-2.586.65-.666 1.478-1 2.48-1 1 0 1.83.334 2.482 1 .65.666.98 1.527.98 2.585 0 1.056-.328 1.918-.98 2.584-.653.666-1.48.998-2.482.998-1.003 0-1.83-.332-2.48-.998-.653-.666-.98-1.528-.98-2.585m-5.436-7.23c.397 0 .74-.146 1.028-.433.29-.29.433-.633.433-1.03 0-.398-.144-.74-.433-1.03-.288-.288-.63-.432-1.028-.432-.4 0-.742.144-1.03.432-.29.29-.434.632-.434 1.03 0 .397.145.74.434 1.03.288.288.63.433 1.03.433m1.132 1.75H5.458v10.956h2.306V22.86zM1.524 33.98c.424 0 .79-.152 1.09-.453.303-.304.454-.667.454-1.094 0-.425-.15-.786-.453-1.08s-.667-.444-1.092-.444-.785.148-1.08.443C.146 31.65 0 32.012 0 32.437c0 .427.147.79.442 1.093.296.3.657.452 1.08.452M80.94 9.803c0-1.58-.55-2.914-1.647-4.006-1.1-1.092-2.474-1.638-4.12-1.638-1.647 0-3.02.545-4.12 1.637-1.098 1.092-1.646 2.427-1.646 4.006s.55 2.914 1.646 4.006c1.1 1.09 2.473 1.636 4.12 1.636 1.646 0 3.02-.546 4.12-1.637 1.097-1.093 1.646-2.428 1.646-4.007m-9.228 0c0-1.057.326-1.92.98-2.585.65-.666 1.478-.998 2.48-.998s1.83.332 2.48.998.98 1.528.98 2.585-.326 1.92-.98 2.584c-.65.666-1.478 1-2.48 1-1.003 0-1.83-.334-2.48-1-.654-.665-.98-1.528-.98-2.584m-10.667-2.77c.59-.53 1.283-.794 2.08-.794 1.674 0 2.512 1.01 2.512 3.026v6.015h2.307V8.567c0-1.428-.38-2.52-1.143-3.274S65.04 4.16 63.805 4.16c-.754 0-1.46.19-2.112.576-.65.384-1.162.912-1.532 1.585V4.325h-2.308V15.28h2.308V9.35c0-1.016.294-1.788.885-2.317m-4.78 2.77c0-1.58-.548-2.914-1.646-4.006-1.1-1.092-2.473-1.638-4.12-1.638s-3.02.545-4.118 1.637c-1.1 1.092-1.648 2.427-1.648 4.006s.55 2.914 1.648 4.006c1.098 1.09 2.47 1.636 4.118 1.636s3.02-.546 4.12-1.637c1.097-1.093 1.646-2.428 1.646-4.007m-9.227 0c0-1.057.324-1.92.978-2.585.652-.666 1.48-.998 2.48-.998 1.003 0 1.83.332 2.483.998.65.666.98 1.528.98 2.585s-.328 1.92-.98 2.584c-.652.666-1.48 1-2.48 1-1.004 0-1.83-.334-2.482-1-.654-.665-.98-1.528-.98-2.584M35.857 7.218c.63-.693 1.406-1.04 2.326-1.04s1.71.347 2.37 1.04c.657.694.987 1.565.987 2.615 0 1.05-.338 1.905-1.01 2.563-.673.66-1.463.99-2.368.99-.906 0-1.676-.334-2.307-1-.632-.665-.95-1.52-.95-2.564.002-1.043.32-1.91.95-2.604m-.905-.98V0h-2.307v15.28h2.307v-1.647c1.1 1.21 2.337 1.812 3.717 1.812s2.587-.527 3.625-1.586c1.036-1.058 1.555-2.43 1.555-4.12 0-1.688-.522-3.04-1.565-4.057-1.044-1.016-2.3-1.524-3.77-1.524-1.468 0-2.656.693-3.562 2.08m-3.583.246l-.02-2.327c-.716.013-1.39.24-2.03.678-.64.44-1.142 1.004-1.513 1.69V4.323h-2.308V15.28h2.308v-4.694c0-1.25.288-2.246.864-2.986.576-.742 1.435-1.113 2.575-1.113h.124zM20.183 12.87c-.55.413-1.19.62-1.925.62s-1.31-.143-1.72-.424c-.412-.28-.618-.69-.618-1.225 0-1.043.83-1.565 2.492-1.565h2.595v.928c0 .7-.276 1.256-.824 1.668m3.13-4.653c0-1.4-.41-2.426-1.226-3.08-.816-.65-1.87-.978-3.16-.978-1.69 0-3.2.527-4.532 1.584l1.03 1.442c1.097-.74 2.154-1.11 3.172-1.11 1.62 0 2.43.727 2.43 2.182v.412H18.04c-1.358 0-2.436.268-3.232.803s-1.195 1.342-1.195 2.42.374 1.94 1.124 2.586c.747.644 1.69.966 2.83.966 1.526 0 2.74-.542 3.647-1.627v1.462h2.1V8.217zm-10.235 5.21l-1.36-1.482c-.905.935-1.87 1.4-2.894 1.4s-1.884-.35-2.585-1.05c-.7-.7-1.052-1.556-1.052-2.564s.355-1.834 1.063-2.47c.707-.64 1.54-.96 2.503-.96.96 0 1.915.413 2.862 1.237l1.36-1.668c-1.14-1.142-2.535-1.71-4.183-1.71-1.646 0-3.044.524-4.19 1.574-1.146 1.05-1.72 2.414-1.72 4.088 0 1.676.55 3.032 1.647 4.068 1.098 1.037 2.41 1.555 3.933 1.555 1.744 0 3.283-.672 4.615-2.017"/></svg>