<?xml version="1.0" encoding="utf-8"?>
<!-- Generator: Adobe Illustrator 16.0.0, SVG Export Plug-In . SVG Version: 6.00 Build 0)  -->
<!DOCTYPE svg PUBLIC "-//W3C//DTD SVG 1.1//EN" "http://www.w3.org/Graphics/SVG/1.1/DTD/svg11.dtd">
<svg version="1.1" id="Layer_1" xmlns="http://www.w3.org/2000/svg" xmlns:xlink="http://www.w3.org/1999/xlink" x="0px" y="0px"
	 width="80.939px" height="33.982px" viewBox="0 0 80.939 33.982" enable-background="new 0 0 80.939 33.982" xml:space="preserve">
<g>
	<g>
		<path d="M21.295,28.339c0-1.579-0.549-2.914-1.647-4.007c-1.098-1.092-2.472-1.637-4.119-1.637c-1.648,0-3.021,0.545-4.119,1.637
			c-1.099,1.093-1.646,2.428-1.646,4.007s0.548,2.913,1.646,4.006c1.099,1.091,2.471,1.638,4.119,1.638
			c1.647,0,3.021-0.547,4.119-1.638C20.746,31.252,21.295,29.918,21.295,28.339 M12.068,28.339c0-1.058,0.326-1.919,0.979-2.585
			c0.651-0.666,1.479-1,2.481-1c1.001,0,1.829,0.334,2.482,1c0.651,0.666,0.979,1.527,0.979,2.585c0,1.057-0.327,1.919-0.979,2.585
			c-0.653,0.666-1.481,0.998-2.482,0.998c-1.003,0-1.83-0.332-2.481-0.998C12.395,30.258,12.068,29.396,12.068,28.339 M6.632,21.11
			c0.397,0,0.74-0.146,1.028-0.433c0.289-0.289,0.433-0.633,0.433-1.029c0-0.399-0.144-0.742-0.433-1.031
			c-0.288-0.288-0.631-0.432-1.028-0.432c-0.399,0-0.742,0.144-1.03,0.432c-0.289,0.289-0.434,0.632-0.434,1.031
			c0,0.396,0.145,0.74,0.434,1.029C5.89,20.965,6.232,21.11,6.632,21.11 M7.764,22.859H5.458v10.957h2.306V22.859z M1.523,33.982
			c0.425,0,0.79-0.152,1.092-0.453c0.302-0.303,0.453-0.666,0.453-1.093c0-0.425-0.151-0.786-0.453-1.081s-0.667-0.443-1.092-0.443
			s-0.785,0.148-1.081,0.443C0.147,31.65,0,32.012,0,32.437c0,0.427,0.147,0.79,0.442,1.093C0.738,33.83,1.099,33.982,1.523,33.982"
			/>
		<path d="M80.939,9.803c0-1.579-0.55-2.914-1.646-4.006c-1.1-1.092-2.474-1.638-4.121-1.638c-1.646,0-3.02,0.546-4.119,1.638
			c-1.098,1.092-1.646,2.427-1.646,4.006s0.549,2.914,1.646,4.006c1.1,1.091,2.473,1.637,4.119,1.637
			c1.647,0,3.021-0.546,4.121-1.637C80.39,12.717,80.939,11.382,80.939,9.803 M71.712,9.803c0-1.057,0.326-1.919,0.979-2.585
			c0.651-0.666,1.479-0.998,2.48-0.998c1.003,0,1.83,0.332,2.482,0.998s0.979,1.528,0.979,2.585s-0.326,1.919-0.979,2.584
			c-0.652,0.666-1.479,1-2.482,1c-1.002,0-1.829-0.334-2.48-1C72.038,11.722,71.712,10.859,71.712,9.803 M61.045,7.033
			c0.589-0.529,1.283-0.794,2.079-0.794c1.675,0,2.513,1.01,2.513,3.027v6.015h2.307V8.566c0-1.428-0.381-2.52-1.143-3.274
			s-1.762-1.133-2.997-1.133c-0.754,0-1.459,0.192-2.112,0.577c-0.65,0.384-1.162,0.912-1.532,1.585V4.324h-2.308v10.957h2.308V9.35
			C60.159,8.334,60.454,7.562,61.045,7.033 M56.266,9.803c0-1.579-0.549-2.914-1.647-4.006c-1.098-1.092-2.472-1.638-4.119-1.638
			s-3.021,0.546-4.118,1.638c-1.099,1.092-1.648,2.427-1.648,4.006s0.55,2.914,1.648,4.006c1.098,1.091,2.471,1.637,4.118,1.637
			s3.021-0.546,4.119-1.637C55.717,12.717,56.266,11.382,56.266,9.803 M47.039,9.803c0-1.057,0.325-1.919,0.979-2.585
			c0.652-0.666,1.479-0.998,2.481-0.998c1.002,0,1.829,0.332,2.482,0.998c0.65,0.666,0.978,1.528,0.978,2.585
			s-0.327,1.919-0.978,2.584c-0.653,0.666-1.48,1-2.482,1c-1.003,0-1.829-0.334-2.481-1C47.364,11.722,47.039,10.859,47.039,9.803
			 M35.856,7.218c0.631-0.693,1.406-1.041,2.326-1.041s1.71,0.348,2.369,1.041c0.658,0.694,0.988,1.565,0.988,2.615
			c0,1.051-0.337,1.905-1.01,2.563c-0.672,0.66-1.462,0.99-2.367,0.99c-0.906,0-1.676-0.334-2.307-1
			c-0.632-0.665-0.949-1.52-0.949-2.564C34.907,8.779,35.225,7.912,35.856,7.218 M34.95,6.239V0h-2.307v15.281h2.307v-1.648
			c1.099,1.209,2.337,1.812,3.717,1.812c1.381,0,2.587-0.527,3.625-1.586c1.036-1.057,1.555-2.43,1.555-4.119
			c0-1.688-0.522-3.041-1.565-4.057c-1.044-1.016-2.299-1.524-3.77-1.524C37.044,4.159,35.856,4.853,34.95,6.239 M31.367,6.486
			l-0.021-2.327c-0.715,0.014-1.39,0.241-2.029,0.679c-0.639,0.441-1.142,1.004-1.513,1.689V4.324h-2.308v10.957h2.308v-4.695
			c0-1.25,0.288-2.246,0.864-2.986c0.576-0.742,1.435-1.113,2.575-1.113H31.367z M20.183,12.871
			c-0.549,0.412-1.189,0.618-1.925,0.618s-1.309-0.142-1.721-0.423c-0.411-0.281-0.617-0.689-0.617-1.225
			c0-1.044,0.83-1.566,2.492-1.566h2.595v0.928C21.007,11.904,20.731,12.459,20.183,12.871 M23.313,8.217
			c0-1.4-0.409-2.426-1.226-3.079c-0.816-0.651-1.871-0.979-3.161-0.979c-1.689,0-3.199,0.528-4.531,1.585l1.03,1.442
			c1.097-0.741,2.154-1.111,3.172-1.111c1.619,0,2.43,0.728,2.43,2.183V8.67h-2.986c-1.359,0-2.437,0.268-3.233,0.803
			s-1.195,1.342-1.195,2.42s0.374,1.939,1.124,2.586c0.747,0.645,1.69,0.967,2.831,0.967c1.525,0,2.739-0.542,3.646-1.627v1.463
			h2.101V8.217z M13.078,13.428l-1.359-1.483c-0.906,0.935-1.871,1.399-2.895,1.399s-1.884-0.35-2.585-1.05
			c-0.699-0.7-1.051-1.555-1.051-2.563S5.543,7.896,6.251,7.26c0.706-0.639,1.54-0.959,2.502-0.959c0.961,0,1.915,0.412,2.862,1.236
			l1.36-1.668c-1.141-1.141-2.535-1.71-4.183-1.71c-1.646,0-3.044,0.525-4.19,1.575c-1.146,1.051-1.72,2.414-1.72,4.088
			c0,1.676,0.55,3.032,1.647,4.068c1.099,1.037,2.41,1.555,3.934,1.555C10.207,15.445,11.746,14.773,13.078,13.428"/>
	</g>
</g>
</svg>
