<?xml version="1.0" encoding="utf-8"?>
<!-- Generator: Adobe Illustrator 16.0.0, SVG Export Plug-In . SVG Version: 6.00 Build 0)  -->
<!DOCTYPE svg PUBLIC "-//W3C//DTD SVG 1.1//EN" "http://www.w3.org/Graphics/SVG/1.1/DTD/svg11.dtd">
<svg version="1.1" id="Layer_1" xmlns="http://www.w3.org/2000/svg" xmlns:xlink="http://www.w3.org/1999/xlink" x="0px" y="0px"
	 width="132.872px" height="48.162px" viewBox="0 0 132.872 48.162" enable-background="new 0 0 132.872 48.162"
	 xml:space="preserve">
<g>
	<g>
		<path d="M73.228,42.519c0-1.579-0.549-2.914-1.647-4.007c-1.098-1.092-2.472-1.637-4.119-1.637c-1.648,0-3.021,0.545-4.119,1.637
			c-1.099,1.093-1.646,2.428-1.646,4.007s0.548,2.913,1.646,4.006c1.099,1.091,2.471,1.638,4.119,1.638
			c1.647,0,3.021-0.547,4.119-1.638C72.679,45.432,73.228,44.098,73.228,42.519 M64.001,42.519c0-1.058,0.326-1.919,0.979-2.585
			c0.651-0.666,1.479-1,2.481-1c1.001,0,1.829,0.334,2.482,1c0.651,0.666,0.979,1.527,0.979,2.585c0,1.057-0.327,1.919-0.979,2.585
			c-0.653,0.666-1.481,0.998-2.482,0.998c-1.003,0-1.83-0.332-2.481-0.998C64.327,44.438,64.001,43.575,64.001,42.519 M58.564,35.29
			c0.397,0,0.74-0.146,1.028-0.433c0.289-0.289,0.433-0.633,0.433-1.029c0-0.399-0.144-0.742-0.433-1.031
			c-0.288-0.288-0.631-0.432-1.028-0.432c-0.399,0-0.742,0.144-1.03,0.432c-0.289,0.289-0.434,0.632-0.434,1.031
			c0,0.396,0.145,0.74,0.434,1.029C57.822,35.145,58.165,35.29,58.564,35.29 M59.696,37.039h-2.306v10.957h2.306V37.039z
			 M53.456,48.162c0.425,0,0.79-0.152,1.092-0.453c0.302-0.303,0.453-0.666,0.453-1.093c0-0.425-0.151-0.786-0.453-1.081
			s-0.667-0.443-1.092-0.443s-0.785,0.148-1.081,0.443c-0.295,0.295-0.442,0.656-0.442,1.081c0,0.427,0.147,0.79,0.442,1.093
			C52.671,48.01,53.031,48.162,53.456,48.162"/>
		<path d="M132.872,23.982c0-1.579-0.55-2.914-1.646-4.006c-1.1-1.092-2.474-1.638-4.121-1.638c-1.646,0-3.02,0.546-4.119,1.638
			c-1.098,1.092-1.646,2.427-1.646,4.006s0.549,2.914,1.646,4.006c1.1,1.091,2.473,1.637,4.119,1.637
			c1.647,0,3.021-0.546,4.121-1.637C132.322,26.896,132.872,25.562,132.872,23.982 M123.645,23.982c0-1.057,0.326-1.919,0.979-2.585
			c0.651-0.666,1.479-0.998,2.48-0.998c1.003,0,1.83,0.332,2.482,0.998s0.979,1.528,0.979,2.585s-0.326,1.919-0.979,2.584
			c-0.652,0.666-1.479,1-2.482,1c-1.002,0-1.829-0.334-2.48-1C123.971,25.901,123.645,25.039,123.645,23.982 M112.978,21.213
			c0.589-0.529,1.283-0.794,2.079-0.794c1.675,0,2.513,1.01,2.513,3.027v6.015h2.307v-6.715c0-1.428-0.381-2.52-1.143-3.274
			s-1.762-1.133-2.997-1.133c-0.754,0-1.459,0.192-2.112,0.577c-0.65,0.384-1.162,0.912-1.532,1.585v-1.997h-2.308v10.957h2.308
			v-5.932C112.092,22.514,112.387,21.741,112.978,21.213 M108.198,23.982c0-1.579-0.549-2.914-1.647-4.006
			c-1.098-1.092-2.472-1.638-4.119-1.638s-3.021,0.546-4.118,1.638c-1.099,1.092-1.648,2.427-1.648,4.006s0.55,2.914,1.648,4.006
			c1.098,1.091,2.471,1.637,4.118,1.637s3.021-0.546,4.119-1.637C107.649,26.896,108.198,25.562,108.198,23.982 M98.972,23.982
			c0-1.057,0.325-1.919,0.979-2.585c0.652-0.666,1.479-0.998,2.481-0.998c1.002,0,1.829,0.332,2.482,0.998
			c0.65,0.666,0.978,1.528,0.978,2.585s-0.327,1.919-0.978,2.584c-0.653,0.666-1.48,1-2.482,1c-1.003,0-1.829-0.334-2.481-1
			C99.297,25.901,98.972,25.039,98.972,23.982 M87.789,21.397c0.631-0.693,1.406-1.041,2.326-1.041s1.71,0.348,2.369,1.041
			c0.658,0.694,0.988,1.565,0.988,2.615c0,1.051-0.337,1.905-1.01,2.563c-0.672,0.66-1.462,0.99-2.367,0.99
			c-0.906,0-1.676-0.334-2.307-1c-0.632-0.665-0.949-1.52-0.949-2.564C86.84,22.959,87.157,22.092,87.789,21.397 M86.883,20.419
			V14.18h-2.307v15.281h2.307v-1.648c1.099,1.209,2.337,1.812,3.717,1.812c1.381,0,2.587-0.527,3.625-1.586
			c1.036-1.057,1.555-2.43,1.555-4.119c0-1.688-0.522-3.041-1.565-4.057c-1.044-1.016-2.299-1.524-3.77-1.524
			C88.977,18.339,87.789,19.032,86.883,20.419 M83.3,20.666l-0.021-2.327c-0.715,0.014-1.39,0.241-2.029,0.679
			c-0.639,0.441-1.142,1.004-1.513,1.689v-2.203h-2.308v10.957h2.308v-4.695c0-1.25,0.288-2.246,0.864-2.986
			c0.576-0.742,1.435-1.113,2.575-1.113H83.3z M72.115,27.051c-0.549,0.412-1.189,0.618-1.925,0.618s-1.309-0.142-1.721-0.423
			c-0.411-0.281-0.617-0.689-0.617-1.225c0-1.044,0.83-1.566,2.492-1.566h2.595v0.928C72.939,26.084,72.664,26.639,72.115,27.051
			 M75.246,22.396c0-1.4-0.409-2.426-1.226-3.079c-0.816-0.651-1.871-0.979-3.161-0.979c-1.689,0-3.199,0.528-4.531,1.585
			l1.03,1.442c1.097-0.741,2.154-1.111,3.172-1.111c1.619,0,2.43,0.728,2.43,2.183v0.412h-2.986c-1.359,0-2.437,0.268-3.233,0.803
			s-1.195,1.342-1.195,2.42s0.374,1.939,1.124,2.586c0.747,0.645,1.69,0.967,2.831,0.967c1.525,0,2.739-0.542,3.646-1.627v1.463
			h2.101V22.396z M65.011,27.607l-1.359-1.483c-0.906,0.935-1.871,1.399-2.895,1.399s-1.884-0.35-2.585-1.05
			c-0.699-0.7-1.051-1.555-1.051-2.563s0.354-1.834,1.062-2.471c0.706-0.639,1.54-0.959,2.502-0.959
			c0.961,0,1.915,0.412,2.862,1.236l1.36-1.668c-1.141-1.141-2.535-1.71-4.183-1.71c-1.646,0-3.044,0.525-4.19,1.575
			c-1.146,1.051-1.72,2.414-1.72,4.088c0,1.676,0.55,3.032,1.647,4.068c1.099,1.037,2.41,1.555,3.934,1.555
			C62.14,29.625,63.679,28.953,65.011,27.607"/>
	</g>
	<rect width="48" height="48"/>
	<g>
		<path fill="#FFFFFF" d="M28.079,16.387c0-6.777-5.494-12.272-12.271-12.272c-5.117,0-9.498,3.133-11.34,7.582l3.708,2.141
			c1.066-3.19,4.074-5.493,7.624-5.493c4.442,0,8.042,3.601,8.042,8.043c0,4.441-3.601,8.043-8.042,8.043
			c-3.472,0-6.421-2.205-7.547-5.287l-3.697,2.135c1.891,4.343,6.214,7.381,11.252,7.381C22.585,28.658,28.079,23.164,28.079,16.387
			"/>
	</g>
</g>
</svg>
