<svg xmlns="http://www.w3.org/2000/svg" width="132.872" height="48.162" viewBox="0 0 132.872 48.162"><path d="M73.228 42.52c0-1.58-.55-2.915-1.647-4.008-1.097-1.092-2.47-1.637-4.118-1.637-1.648 0-3.02.545-4.12 1.637-1.098 1.093-1.645 2.428-1.645 4.007s.548 2.912 1.646 4.005c1.1 1.09 2.47 1.638 4.12 1.638 1.646 0 3.02-.547 4.118-1.638 1.1-1.093 1.648-2.427 1.648-4.006m-9.227 0c0-1.06.327-1.92.98-2.586.65-.666 1.48-1 2.48-1 1.002 0 1.83.334 2.483 1 .65.666.98 1.527.98 2.585 0 1.056-.328 1.918-.98 2.584-.653.666-1.48.998-2.482.998-1.002 0-1.83-.332-2.48-.998-.653-.666-.98-1.53-.98-2.585m-5.436-7.23c.397 0 .74-.146 1.028-.433.29-.29.433-.633.433-1.03 0-.398-.144-.74-.433-1.03-.288-.288-.63-.432-1.028-.432-.4 0-.742.144-1.03.432-.29.29-.434.632-.434 1.03 0 .397.145.74.434 1.03.288.288.63.433 1.03.433m1.132 1.75H57.39v10.956h2.306V37.04zm-6.24 11.122c.425 0 .79-.152 1.092-.453.302-.304.453-.667.453-1.094 0-.425-.15-.786-.452-1.08s-.667-.444-1.092-.444-.785.148-1.08.443c-.296.295-.443.656-.443 1.08 0 .428.147.79.442 1.094.296.3.656.452 1.08.452M132.872 23.982c0-1.58-.55-2.914-1.646-4.006-1.1-1.092-2.474-1.638-4.12-1.638-1.647 0-3.02.546-4.12 1.638-1.098 1.092-1.646 2.427-1.646 4.006s.55 2.914 1.646 4.006c1.1 1.09 2.473 1.637 4.12 1.637 1.646 0 3.02-.546 4.12-1.637 1.096-1.092 1.646-2.426 1.646-4.006m-9.227 0c0-1.057.326-1.92.98-2.585.65-.666 1.478-.998 2.48-.998s1.83.33 2.48.997.98 1.528.98 2.585-.326 1.92-.98 2.584c-.65.666-1.478 1-2.48 1-1.003 0-1.83-.334-2.48-1-.654-.665-.98-1.527-.98-2.584m-10.667-2.77c.59-.528 1.283-.793 2.08-.793 1.674 0 2.512 1.01 2.512 3.026v6.015h2.307v-6.714c0-1.428-.38-2.52-1.143-3.274s-1.762-1.133-2.997-1.133c-.754 0-1.46.19-2.112.576-.65.384-1.162.912-1.532 1.585v-1.996h-2.308V29.46h2.308v-5.93c0-1.016.294-1.79.885-2.317m-4.78 2.77c0-1.58-.55-2.915-1.647-4.007-1.097-1.092-2.47-1.638-4.118-1.638s-3.02.546-4.118 1.638c-1.1 1.092-1.648 2.427-1.648 4.006s.55 2.914 1.648 4.006c1.098 1.09 2.47 1.637 4.118 1.637s3.02-.546 4.12-1.637c1.097-1.092 1.646-2.426 1.646-4.006m-9.226 0c0-1.057.325-1.92.98-2.585.65-.666 1.478-.998 2.48-.998s1.83.33 2.482.997c.65.666.978 1.528.978 2.585s-.327 1.92-.978 2.584c-.653.666-1.48 1-2.482 1-1.003 0-1.83-.334-2.48-1-.655-.665-.98-1.527-.98-2.584M87.79 21.397c.63-.693 1.405-1.04 2.325-1.04s1.71.347 2.37 1.04c.657.694.987 1.565.987 2.615 0 1.05-.337 1.905-1.01 2.563-.672.66-1.462.99-2.367.99-.906 0-1.676-.334-2.307-1-.632-.665-.95-1.52-.95-2.564.002-1.04.32-1.908.95-2.603m-.905-.978v-6.24h-2.307v15.28h2.307v-1.647c1.1 1.21 2.337 1.812 3.717 1.812s2.587-.527 3.625-1.586c1.036-1.058 1.555-2.43 1.555-4.12 0-1.688-.522-3.04-1.565-4.057-1.044-1.016-2.3-1.524-3.77-1.524-1.468 0-2.656.692-3.562 2.08m-3.583.246l-.02-2.327c-.716.013-1.39.24-2.03.678-.64.44-1.142 1.004-1.513 1.69v-2.204H77.43V29.46h2.307v-4.694c0-1.25.288-2.246.864-2.986.577-.742 1.436-1.113 2.576-1.113h.124zM72.115 27.05c-.55.413-1.19.62-1.925.62s-1.31-.143-1.72-.424c-.412-.28-.618-.69-.618-1.225 0-1.043.83-1.565 2.492-1.565h2.595v.928c0 .7-.276 1.256-.825 1.668m3.13-4.654c0-1.4-.408-2.426-1.225-3.08-.816-.65-1.87-.978-3.16-.978-1.69 0-3.2.528-4.532 1.585l1.03 1.442c1.097-.74 2.154-1.11 3.172-1.11 1.62 0 2.43.727 2.43 2.182v.412h-2.986c-1.36 0-2.437.267-3.233.802s-1.194 1.342-1.194 2.42.374 1.94 1.124 2.586c.747.645 1.69.967 2.83.967 1.526 0 2.74-.542 3.647-1.627v1.463h2.1v-7.064zm-10.234 5.21l-1.358-1.482c-.906.935-1.87 1.4-2.895 1.4s-1.884-.35-2.585-1.05c-.7-.7-1.05-1.556-1.05-2.564s.353-1.834 1.06-2.47c.707-.64 1.54-.96 2.503-.96.96 0 1.915.412 2.862 1.236l1.36-1.668c-1.14-1.14-2.535-1.71-4.183-1.71-1.646 0-3.044.525-4.19 1.575-1.146 1.05-1.72 2.414-1.72 4.088 0 1.677.55 3.033 1.647 4.07 1.1 1.036 2.41 1.554 3.935 1.554 1.745 0 3.284-.67 4.616-2.017M0 0h48v48H0z"/><g><path fill="#FFF" d="M28.08 16.387c0-6.777-5.495-12.272-12.272-12.272-5.117 0-9.498 3.133-11.34 7.582l3.708 2.14c1.066-3.19 4.074-5.492 7.624-5.492 4.442 0 8.042 3.6 8.042 8.043 0 4.44-3.6 8.043-8.042 8.043-3.472 0-6.42-2.204-7.547-5.286L4.556 21.28c1.89 4.342 6.214 7.38 11.252 7.38 6.777-.002 12.27-5.496 12.27-12.273"/></g></svg>